<svg id="visual" viewBox="0 0 900 600" width="900" height="600" xmlns="http://www.w3.org/2000/svg" xmlns:xlink="http://www.w3.org/1999/xlink" version="1.1"><rect x="0" y="0" width="900" height="600" fill="#FFFFFF"></rect><path d="M0 92L16.7 90C33.3 88 66.7 84 100 83.8C133.3 83.7 166.7 87.3 200 89.7C233.3 92 266.7 93 300 95.8C333.3 98.7 366.7 103.3 400 100.2C433.3 97 466.7 86 500 87.2C533.3 88.3 566.7 101.7 600 101.8C633.3 102 666.7 89 700 82.7C733.3 76.3 766.7 76.7 800 81.8C833.3 87 866.7 97 883.3 102L900 107L900 0L883.3 0C866.7 0 833.3 0 800 0C766.7 0 733.3 0 700 0C666.7 0 633.3 0 600 0C566.7 0 533.3 0 500 0C466.7 0 433.3 0 400 0C366.7 0 333.3 0 300 0C266.7 0 233.3 0 200 0C166.7 0 133.3 0 100 0C66.7 0 33.3 0 16.7 0L0 0Z" fill="#8B9E92" stroke-linecap="round" stroke-linejoin="miter"></path></svg>