<svg id="visual" viewBox="0 0 1920 300" width="1920" height="300" xmlns="http://www.w3.org/2000/svg" xmlns:xlink="http://www.w3.org/1999/xlink" version="1.1"><rect x="0" y="0" width="1920" height="300" fill="#FFFFFF"></rect><path d="M0 171L12.8 171.8C25.7 172.7 51.3 174.3 77 165.7C102.7 157 128.3 138 153.8 138.2C179.3 138.3 204.7 157.7 230.2 158.5C255.7 159.3 281.3 141.7 307 134C332.7 126.3 358.3 128.7 384 135.3C409.7 142 435.3 153 461 152C486.7 151 512.3 138 537.8 136.2C563.3 134.3 588.7 143.7 614.2 147.7C639.7 151.7 665.3 150.3 691 153.8C716.7 157.3 742.3 165.7 768 166.7C793.7 167.7 819.3 161.3 845 161.3C870.7 161.3 896.3 167.7 921.8 163.5C947.3 159.3 972.7 144.7 998.2 137.5C1023.7 130.3 1049.3 130.7 1075 135.8C1100.7 141 1126.3 151 1152 149C1177.7 147 1203.3 133 1229 129.7C1254.7 126.3 1280.3 133.7 1305.8 141.5C1331.3 149.3 1356.7 157.7 1382.2 163C1407.7 168.3 1433.3 170.7 1459 170.7C1484.7 170.7 1510.3 168.3 1536 159.7C1561.7 151 1587.3 136 1613 137.7C1638.7 139.3 1664.3 157.7 1689.8 165.8C1715.3 174 1740.7 172 1766.2 163.3C1791.7 154.7 1817.3 139.3 1843 138.7C1868.7 138 1894.3 152 1907.2 159L1920 166L1920 0L1907.2 0C1894.3 0 1868.7 0 1843 0C1817.3 0 1791.7 0 1766.2 0C1740.7 0 1715.3 0 1689.8 0C1664.3 0 1638.7 0 1613 0C1587.3 0 1561.7 0 1536 0C1510.3 0 1484.7 0 1459 0C1433.3 0 1407.7 0 1382.2 0C1356.7 0 1331.3 0 1305.8 0C1280.3 0 1254.7 0 1229 0C1203.3 0 1177.7 0 1152 0C1126.3 0 1100.7 0 1075 0C1049.3 0 1023.7 0 998.2 0C972.7 0 947.3 0 921.8 0C896.3 0 870.7 0 845 0C819.3 0 793.7 0 768 0C742.3 0 716.7 0 691 0C665.3 0 639.7 0 614.2 0C588.7 0 563.3 0 537.8 0C512.3 0 486.7 0 461 0C435.3 0 409.7 0 384 0C358.3 0 332.7 0 307 0C281.3 0 255.7 0 230.2 0C204.7 0 179.3 0 153.8 0C128.3 0 102.7 0 77 0C51.3 0 25.7 0 12.8 0L0 0Z" fill="#8B9E92" stroke-linecap="round" stroke-linejoin="miter"></path></svg>