<?xml version="1.0" standalone="no"?>
<svg xmlns:xlink="http://www.w3.org/1999/xlink" id="wave" style="transform:rotate(180deg); transition: 0.3s" viewBox="0 0 1440 310" version="1.1" xmlns="http://www.w3.org/2000/svg"><defs><linearGradient id="sw-gradient-0" x1="0" x2="0" y1="1" y2="0"><stop stop-color="rgba(243, 106, 62, 1)" offset="0%"/><stop stop-color="rgba(255, 179, 11, 1)" offset="100%"/></linearGradient></defs><path style="transform:translate(0, 0px); opacity:1" fill="url(#sw-gradient-0)" d="M0,279L10.9,237.7C21.8,196,44,114,65,67.2C87.3,21,109,10,131,15.5C152.7,21,175,41,196,67.2C218.2,93,240,124,262,129.2C283.6,134,305,114,327,108.5C349.1,103,371,114,393,134.3C414.5,155,436,186,458,196.3C480,207,502,196,524,160.2C545.5,124,567,62,589,51.7C610.9,41,633,83,655,118.8C676.4,155,698,186,720,186C741.8,186,764,155,785,139.5C807.3,124,829,124,851,103.3C872.7,83,895,41,916,25.8C938.2,10,960,21,982,67.2C1003.6,114,1025,196,1047,227.3C1069.1,258,1091,238,1113,201.5C1134.5,165,1156,114,1178,118.8C1200,124,1222,186,1244,211.8C1265.5,238,1287,227,1309,196.3C1330.9,165,1353,114,1375,103.3C1396.4,93,1418,124,1440,134.3C1461.8,145,1484,134,1505,124C1527.3,114,1549,103,1560,98.2L1570.9,93L1570.9,310L1560,310C1549.1,310,1527,310,1505,310C1483.6,310,1462,310,1440,310C1418.2,310,1396,310,1375,310C1352.7,310,1331,310,1309,310C1287.3,310,1265,310,1244,310C1221.8,310,1200,310,1178,310C1156.4,310,1135,310,1113,310C1090.9,310,1069,310,1047,310C1025.5,310,1004,310,982,310C960,310,938,310,916,310C894.5,310,873,310,851,310C829.1,310,807,310,785,310C763.6,310,742,310,720,310C698.2,310,676,310,655,310C632.7,310,611,310,589,310C567.3,310,545,310,524,310C501.8,310,480,310,458,310C436.4,310,415,310,393,310C370.9,310,349,310,327,310C305.5,310,284,310,262,310C240,310,218,310,196,310C174.5,310,153,310,131,310C109.1,310,87,310,65,310C43.6,310,22,310,11,310L0,310Z"/></svg>