<svg id="visual" viewBox="0 0 900 600" width="900" height="600" xmlns="http://www.w3.org/2000/svg" xmlns:xlink="http://www.w3.org/1999/xlink" version="1.1"><rect x="0" y="0" width="900" height="600" fill="#FFFFFF"></rect><path d="M0 566L18.8 566C37.7 566 75.3 566 112.8 562.2C150.3 558.3 187.7 550.7 225.2 549.3C262.7 548 300.3 553 337.8 548C375.3 543 412.7 528 450.2 526.8C487.7 525.7 525.3 538.3 562.8 542C600.3 545.7 637.7 540.3 675.2 534.5C712.7 528.7 750.3 522.3 787.8 526.5C825.3 530.7 862.7 545.3 881.3 552.7L900 560L900 601L881.3 601C862.7 601 825.3 601 787.8 601C750.3 601 712.7 601 675.2 601C637.7 601 600.3 601 562.8 601C525.3 601 487.7 601 450.2 601C412.7 601 375.3 601 337.8 601C300.3 601 262.7 601 225.2 601C187.7 601 150.3 601 112.8 601C75.3 601 37.7 601 18.8 601L0 601Z" fill="#24272e" stroke-linecap="round" stroke-linejoin="miter"></path></svg>