<svg id="visual" viewBox="0 0 900 600" width="900" height="600" xmlns="http://www.w3.org/2000/svg" xmlns:xlink="http://www.w3.org/1999/xlink" version="1.1"><rect x="0" y="0" width="900" height="600" fill="#FFFFFF"></rect><path d="M0 32L18.8 32C37.7 32 75.3 32 112.8 35.8C150.3 39.7 187.7 47.3 225.2 48.7C262.7 50 300.3 45 337.8 50C375.3 55 412.7 70 450.2 71.2C487.7 72.3 525.3 59.7 562.8 56C600.3 52.3 637.7 57.7 675.2 63.5C712.7 69.3 750.3 75.7 787.8 71.5C825.3 67.3 862.7 52.7 881.3 45.3L900 38L900 0L881.3 0C862.7 0 825.3 0 787.8 0C750.3 0 712.7 0 675.2 0C637.7 0 600.3 0 562.8 0C525.3 0 487.7 0 450.2 0C412.7 0 375.3 0 337.8 0C300.3 0 262.7 0 225.2 0C187.7 0 150.3 0 112.8 0C75.3 0 37.7 0 18.8 0L0 0Z" fill="#a8996e" stroke-linecap="round" stroke-linejoin="miter"></path></svg>